# xmcd
#
# Track frame offsets: 
#        150
#        12288
#        24928
#        36333
#        47660
#        60027
#        71496
#        82112
#        93681
#        105344
#        115959
#        127593
#        138877
#        149422
#        160395
#        173151
#        185003
#        197056
#        209097
#
# Disc length: 2935 seconds
#
# Revision: 0
# Processed by: cddbd v1.5.2PL0 Copyright (c) Steve Scherf et al.
# Submitted via: ExactAudioCopy v0.95b2
#
DISCID=060b7513
DTITLE=Jim Reeves - Mexican Joe
DYEAR=1967
DGENRE=Country
TTITLE0=Mexican Joe
TTITLE1=Bimbo
TTITLE2=I love you
TTITLE3=Penny candy
TTITLE4=Drinking tequila
TTITLE5=Yonder comes a sucker
TTITLE6=Beatin' on the ding dong
TTITLE7=Give me one more kiss
TTITLE8=I'll follow you
TTITLE9=Where does a broker heart go?
TTITLE10=Are you the one?
TTITLE11=It's hard to love just one
TTITLE12=Hillbilly waltz
TTITLE13=Gypsy heart
TTITLE14=Butterfly love
TTITLE15=Padre of old san Antone
TTITLE16=Thewilder your heart beats, the sweeter you are
TTITLE17=Shall we gether at the river (Mother went a-walking)
TTITLE18=Red-eyed adn rowdy
EXTD=
EXTT0=
EXTT1=
EXTT2=
EXTT3=
EXTT4=
EXTT5=
EXTT6=
EXTT7=
EXTT8=
EXTT9=
EXTT10=
EXTT11=
EXTT12=
EXTT13=
EXTT14=
EXTT15=
EXTT16=
EXTT17=
EXTT18=
PLAYORDER=
